<svg xmlns="http://www.w3.org/2000/svg" width="32" height="32" viewBox="0 0 32 32" shape-rendering="crispEdges"><path fill="#080e1c" d="M3 2h26v2h2v20h-2v2H19v2h6v2H7v-2h6v-2H3v-2H1V4h2z"/><path fill="#a6bfd0" d="M3 4h26v20H3zM13 24h6v4h-6zM7 28h18v2H7z"/><path fill="#526b8d" d="M3 21h26v3H3zM17 24h2v4h-2zM7 29h18v1H7z"/><path fill="#1d3045" d="M5 6h22v14H5z"/><path fill="#0c1829" d="M7 8h18v10H7z"/><path fill="#8ff0b4" d="M9 10h2v2H9zM11 12h2v2h-2zM9 14h2v2H9zM15 15h6v2h-6z"/><path fill="#f6cd78" d="M24 22h2v1h-2z"/></svg>
